<svg xmlns="http://www.w3.org/2000/svg" viewBox="0 0 90 88"><g fill="none" stroke="#000" stroke-width="2" stroke-linecap="round" stroke-linejoin="round" stroke-miterlimit="10"><path d="M45 1.7v72.9m-19.3-15H4.4L15 14.4zm-.4 4.5H4.9c-.7 0-1.3-.3-1.7-.9L.6 59.6h29.1L27 63.2c-.4.5-1.1.9-1.7.9zm60.6-5H64.6l10.7-44.7zm-.5 4.5H65c-.6 0-1.2-.3-1.6-.8l-2.7-3.6h29.1l-2.6 3.6c-.5.4-1.1.8-1.8.8zM61.7 86.4H28.3v-7.1h33.4zm-2.2-7.2H30.4l2.5-3.7c.3-.5.8-.8 1.4-.8h21.3c.6 0 1.2.3 1.4.9l2.5 3.6z"/><path d="M2.5 16.2c18.8 0 22.6-11 42.4-11s24.2 11 42.9 11"/></g></svg>