<svg xmlns="http://www.w3.org/2000/svg" viewBox="0 0 80 80"><path fill="none" stroke="#000" stroke-width="2" stroke-linecap="round" stroke-miterlimit="10" d="M41.7 75.6c-8.2 0-16.5-3.1-22.7-9.4-5-5-8-11.3-9-17.8"/><path d="M19.5 53.2l-1.2 1.6-8-5.7-5.2 8.4-1.7-1 6.3-10.3 9.8 7z"/><path fill="none" stroke="#000" stroke-width="2" stroke-linecap="round" stroke-miterlimit="10" d="M69.4 27.1c7.3 12.3 5.6 28.4-5 39-3 3-6.4 5.2-10 6.8"/><path d="M56.7 62.5l1.9.8-3.6 9.2 9.5 2.8-.6 1.9-11.5-3.5 4.3-11.2z"/><path fill="none" stroke="#000" stroke-width="2" stroke-linecap="round" stroke-miterlimit="10" d="M10.4 36.2c1.3-5.7 4.2-11.1 8.6-15.5 8.9-8.9 21.6-11.5 32.8-7.8"/><path d="M43.1 19.2l-.9-1.8 8.8-4.6-5.2-8.4 1.7-1 6.3 10.2-10.7 5.6z"/><circle fill="none" stroke="#000" stroke-width="2" stroke-linecap="round" stroke-miterlimit="10" cx="62" cy="18" r="3"/></svg>