<svg xmlns="http://www.w3.org/2000/svg" viewBox="0 0 91 83.1"><g fill="none" stroke="#000" stroke-width="2" stroke-linecap="round" stroke-linejoin="round" stroke-miterlimit="10"><path d="M49.5 11C44.3 16.7 39.2 22.3 34 28c-3.8-3.3-6-1.5-7.4.6-.8 1.2-.8 3.9 0 4.8 4.9 5.4 10.2 10.5 15.4 15.5.7.7 2.3.4 4.2.8l4-4C46.6 37.5 39.5 33.1 34 27.5"/><path d="M49.5 41c4-4 7.9-8.1 12-12 1.8-1.7 3.6-3.1 6.5-3.2 1.7-.1 3.9-1.8 4.8-3.4.6-1.1-.3-3.7-1.4-4.8-4.3-4.5-8.9-8.7-13.4-13.1-2.4-2.3-4.6-2.3-7 0-2.7 2.6-1.7 4.8.5 7l14 14M8 69.5c-5.9 1.6-1.6 6-3.5 9.3h34.2v-8.5c-9.9-.2-20.1-.5-30.3-.7M36 69v-5.8H8V69"/><path d="M61 31l27.4 27.4c-2 2.4-3.9 4.7-6.8 8.2-9.8-10.3-18.4-19.4-27.1-28.5"/></g></svg>