<svg xmlns="http://www.w3.org/2000/svg" viewBox="0 0 114 80"><path fill="none" stroke="#000" stroke-width="2" stroke-miterlimit="10" d="M3.4 43.1L109 32.4l2.9 29.5L6.2 72.6 3.4 43.1z"/><path fill="none" stroke="#000" stroke-width="2" stroke-miterlimit="10" d="M37.2 39.7L49.7 8c.5-1.1 2.2-1.3 2.8-.3l19.3 28.5"/><path d="M23 49.8c.9-.7 2-1.2 3.3-1.3 2.2-.3 3.9.8 4.1 2.9.2 1.7-.9 3-2.4 3.5 1.9 0 3.3 1.1 3.5 3 .3 2.8-2 4.1-4.3 4.4-1.2.1-2.4 0-3.5-.5l.3-1.4c.8.3 2 .6 3 .5 2-.2 2.9-1.4 2.7-2.8-.2-2-2.1-2.4-3.7-2.2l-.8.1-.1-1.3.8-.1c1.7-.2 2.9-1.4 2.8-2.7-.2-1.3-1.1-2-2.6-1.8-1 .1-2 .6-2.6 1.1l-.5-1.4zm15.5 11.1l-.3-1.2h-.1c-.4.8-1.4 1.6-2.7 1.7-1.9.2-3-1-3.1-2.4-.3-2.3 1.6-3.7 5.3-4.1v-.2c-.1-.8-.4-2.2-2.3-2-.9.1-1.7.4-2.4 1l-.5-1.1c.7-.6 1.8-1 3-1.1 2.8-.3 3.7 1.7 3.9 3.6l.3 3.6c.1.8.2 1.7.3 2.3l-1.4-.1zm-.7-4.9c-1.9.2-3.9.7-3.7 2.5.1 1.1.9 1.6 1.8 1.5 1.2-.1 1.9-1 2.1-1.8 0-.2.1-.3.1-.5l-.3-1.7zm5.6-5.2l.4 4.1h.4l3.1-4.4 2-.2-3.6 4.7c1.5 0 2.6 1 3.4 2.6.3.6.8 1.5 1.2 2.2l-1.8.2c-.3-.3-.7-1.1-1-1.8-.8-1.5-1.7-2.1-3.3-1.9h-.3l.4 4.2-1.7.2-1-9.7 1.8-.2zm7.8 2.3c-.1-1.2-.3-2.2-.3-3.1l1.5-.2.3 1.7c.6-1.2 1.6-2 3.1-2.2 2.2-.3 4.1 1.6 4.4 4.4.3 3.4-1.5 5.3-3.7 5.6-1.2.1-2.4-.3-3-1.2l.5 5.1-1.7.2-1.1-10.3zm2 2.4c0 .3.1.5.2.7.4 1.1 1.5 1.9 2.7 1.7 1.8-.2 2.6-1.7 2.5-3.9-.2-1.9-1.4-3.4-3.1-3.2-1.2.1-2.1 1-2.4 2.4 0 .3-.1.5-.1.7l.2 1.6zm10.2-6.7l.3 3.2c.3-.1.9-.2 1.5-.3 2-.2 4.1.4 4.3 2.8.1 1-.2 1.7-.8 2.3-.9 1-2.4 1.4-3.7 1.5-.9.1-1.8.1-2.5.1l-.9-9.5 1.8-.1zm.8 8.3h1.2c1.3-.1 2.6-.8 2.5-2.3-.2-1.6-1.5-1.8-2.8-1.7-.5.1-.9.1-1.3.3l.4 3.7zm7.6-9.2l.9 9.5-1.7.2-.9-9.5 1.7-.2zm9-1l.2 1.4-2.9.3.8 8.1-1.7.2-.8-8.1-2.9.2-.2-1.4 7.5-.7zm10 3.8c.3 3.5-1.9 5.3-4.2 5.5-2.6.3-4.6-1.4-4.9-4.4-.3-3.2 1.5-5.2 4.1-5.5 2.8-.3 4.8 1.5 5 4.4zm-7.3.9c.2 2.1 1.5 3.6 3.1 3.4 1.6-.2 2.6-1.8 2.5-4-.1-1.6-1.1-3.6-3.1-3.4-2 .1-2.6 2.1-2.5 4zM50.6 11.2c.4-.5 1.2-.6 1.7-.2s.6 1.2.2 1.7c-.5.6-1.2.7-1.7.3-.5-.5-.6-1.2-.2-1.8z"/></svg>