<svg xmlns="http://www.w3.org/2000/svg" viewBox="0 0 450 450"><path fill="#fff" d="M168 140c13.7 6.4 24.3 16.7 34.1 27.8 6.1 6.9 6.4 12.6 1.4 20.5-3.2 5-7.1 9.6-11 14.1-2 2.2-2.3 3.8-.8 6.5 12.4 23.3 31.4 39.7 54.4 51.9 1.3.7 4.2 0 5.4-1.1 3.8-3.4 7.1-7.5 10.8-11.1 5.4-5.4 9.5-6.5 15.5-2.2 9.6 6.8 19.1 14 27.5 22.2 8.4 8.1 8 16.2.7 25.3-13.4 16.8-30.9 19.4-50.4 13.9-18.1-5.1-33.7-14.8-48.7-25.7-19.2-14-36.9-29.5-50.1-49.6-7.8-11.8-13.4-24.5-14.9-38.7-.1-.6-.6-1.1-.9-1.7v-8l.9-6.3c2.8-15.9 8.4-30 24.1-37.7.7-.1 1.3-.1 2-.1z"/></svg>
