<svg xmlns="http://www.w3.org/2000/svg"><symbol id="sprite-calc" viewBox="190 183 75 85"><path fill="none" stroke="#000" stroke-width="2" d="M242 219v-31.5c-1.7-2.1-3.8-2.8-6.5-2.6-8.8.6-17.7-.6-26.5.5-1.5.2-2.8.2-4 1.5-3.5 3.8-7.3 7.4-11 11-2 2-2.5 4.4-2.5 7v42c0 6.3.8 6.9 7 7 9.5.2 19-.7 28.5.5"/><path fill="none" stroke="#000" stroke-width="2" stroke-linecap="round" stroke-linejoin="round" stroke-miterlimit="10" d="M261 220.5c1.2 9.5.2 19 .5 28.5.1 5.5 0 11 0 16.7H228v-45.8h32"/><path fill="none" stroke="#000" stroke-width="2" stroke-linecap="round" stroke-linejoin="round" stroke-miterlimit="10" d="M251.5 248.5v11.6c1.4.9 3 .1 4.8.5v-13.9c-1.3-.6-3.1 0-4.8-.2m-43-60.5c.8 5 .4 10 .5 15.3-5.8 1.1-11.1.9-16.5.2m41 24c-2.5 1.4.1 3.8-1.7 5.8h24.5c.6-1.5 0-3.4.3-5.8H234m-.5 11.5c-.9 3.5-.9 3.6 3.5 3 .4-2.4-.6-3.3-3-3m10 0c-2.1.2-1.3 1.8-1.6 3 1.1 1 2.4.2 4.2.7-.6-1.6 1.1-3.7-2.2-3.7m9.1 0c-2.1.2-1.3 1.8-1.6 3 1.9.7 4 1.3 4.5-1.5.4-1.9-1.4-1.4-2.4-1.5m-19.5 9.5c-1.4.3-2.5 1.2-1.9 2.5.7 1.5 2.2 2.2 3.9 1.1.2-2.4.2-2.4-1.5-3.5m8.5-.1c-1.2-.1-.9.8-1 1.5-.1 1.3.7 1.9 1.5 2.5 2.1.1 2.7-1.2 2.5-3-.2-1.8-1.6-.7-2.5-1m-.5 9c-2.1 1.1-.4 3-1.1 4.5 1.1 1.1 2.4.3 3.7.6.5-1.7.5-3.4 0-5.1h-2.2m-10.4.5c-1.2 1-1.4 2.2-.2 4 .8-.1 2 .5 3.5-.7.7-2.2.1-3.6-2.8-3.2"/></symbol><symbol id="sprite-check" viewBox="0 0 39.1 32"><path fill="#FEFEFE" d="M38.8 32H0V.1h38.8V32z"/><path fill="#060606" d="M1.7 17.6c3.9 1 5.6 4.3 8.4 7C15.3 17.4 21.2 11 28.3 5.7c1.8-1.4 3.8-2.7 5.7-4 1.2-.8 2.5-1 3.5 1-10.1 8-19.3 17-26.4 29.1-3.6-4.9-7.4-8.9-9.4-14.2z"/></symbol><symbol id="sprite-circle" viewBox="0 0 80 80"><path fill="none" stroke="#000" stroke-width="2" stroke-linecap="round" stroke-miterlimit="10" d="M41.7 75.6c-8.2 0-16.5-3.1-22.7-9.4-5-5-8-11.3-9-17.8"/><path d="M19.5 53.2l-1.2 1.6-8-5.7-5.2 8.4-1.7-1 6.3-10.3 9.8 7z"/><path fill="none" stroke="#000" stroke-width="2" stroke-linecap="round" stroke-miterlimit="10" d="M69.4 27.1c7.3 12.3 5.6 28.4-5 39-3 3-6.4 5.2-10 6.8"/><path d="M56.7 62.5l1.9.8-3.6 9.2 9.5 2.8-.6 1.9-11.5-3.5 4.3-11.2z"/><path fill="none" stroke="#000" stroke-width="2" stroke-linecap="round" stroke-miterlimit="10" d="M10.4 36.2c1.3-5.7 4.2-11.1 8.6-15.5 8.9-8.9 21.6-11.5 32.8-7.8"/><path d="M43.1 19.2l-.9-1.8 8.8-4.6-5.2-8.4 1.7-1 6.3 10.2-10.7 5.6z"/><circle fill="none" stroke="#000" stroke-width="2" stroke-linecap="round" stroke-miterlimit="10" cx="62" cy="18" r="3"/></symbol><symbol id="sprite-close" viewBox="0 0 114 80"><path fill="none" stroke="#000" stroke-width="2" stroke-miterlimit="10" d="M3.4 43.1L109 32.4l2.9 29.5L6.2 72.6 3.4 43.1z"/><path fill="none" stroke="#000" stroke-width="2" stroke-miterlimit="10" d="M37.2 39.7L49.7 8c.5-1.1 2.2-1.3 2.8-.3l19.3 28.5"/><path d="M23 49.8c.9-.7 2-1.2 3.3-1.3 2.2-.3 3.9.8 4.1 2.9.2 1.7-.9 3-2.4 3.5 1.9 0 3.3 1.1 3.5 3 .3 2.8-2 4.1-4.3 4.4-1.2.1-2.4 0-3.5-.5l.3-1.4c.8.3 2 .6 3 .5 2-.2 2.9-1.4 2.7-2.8-.2-2-2.1-2.4-3.7-2.2l-.8.1-.1-1.3.8-.1c1.7-.2 2.9-1.4 2.8-2.7-.2-1.3-1.1-2-2.6-1.8-1 .1-2 .6-2.6 1.1l-.5-1.4zm15.5 11.1l-.3-1.2h-.1c-.4.8-1.4 1.6-2.7 1.7-1.9.2-3-1-3.1-2.4-.3-2.3 1.6-3.7 5.3-4.1v-.2c-.1-.8-.4-2.2-2.3-2-.9.1-1.7.4-2.4 1l-.5-1.1c.7-.6 1.8-1 3-1.1 2.8-.3 3.7 1.7 3.9 3.6l.3 3.6c.1.8.2 1.7.3 2.3l-1.4-.1zm-.7-4.9c-1.9.2-3.9.7-3.7 2.5.1 1.1.9 1.6 1.8 1.5 1.2-.1 1.9-1 2.1-1.8 0-.2.1-.3.1-.5l-.3-1.7zm5.6-5.2l.4 4.1h.4l3.1-4.4 2-.2-3.6 4.7c1.5 0 2.6 1 3.4 2.6.3.6.8 1.5 1.2 2.2l-1.8.2c-.3-.3-.7-1.1-1-1.8-.8-1.5-1.7-2.1-3.3-1.9h-.3l.4 4.2-1.7.2-1-9.7 1.8-.2zm7.8 2.3c-.1-1.2-.3-2.2-.3-3.1l1.5-.2.3 1.7c.6-1.2 1.6-2 3.1-2.2 2.2-.3 4.1 1.6 4.4 4.4.3 3.4-1.5 5.3-3.7 5.6-1.2.1-2.4-.3-3-1.2l.5 5.1-1.7.2-1.1-10.3zm2 2.4c0 .3.1.5.2.7.4 1.1 1.5 1.9 2.7 1.7 1.8-.2 2.6-1.7 2.5-3.9-.2-1.9-1.4-3.4-3.1-3.2-1.2.1-2.1 1-2.4 2.4 0 .3-.1.5-.1.7l.2 1.6zm10.2-6.7l.3 3.2c.3-.1.9-.2 1.5-.3 2-.2 4.1.4 4.3 2.8.1 1-.2 1.7-.8 2.3-.9 1-2.4 1.4-3.7 1.5-.9.1-1.8.1-2.5.1l-.9-9.5 1.8-.1zm.8 8.3h1.2c1.3-.1 2.6-.8 2.5-2.3-.2-1.6-1.5-1.8-2.8-1.7-.5.1-.9.1-1.3.3l.4 3.7zm7.6-9.2l.9 9.5-1.7.2-.9-9.5 1.7-.2zm9-1l.2 1.4-2.9.3.8 8.1-1.7.2-.8-8.1-2.9.2-.2-1.4 7.5-.7zm10 3.8c.3 3.5-1.9 5.3-4.2 5.5-2.6.3-4.6-1.4-4.9-4.4-.3-3.2 1.5-5.2 4.1-5.5 2.8-.3 4.8 1.5 5 4.4zm-7.3.9c.2 2.1 1.5 3.6 3.1 3.4 1.6-.2 2.6-1.8 2.5-4-.1-1.6-1.1-3.6-3.1-3.4-2 .1-2.6 2.1-2.5 4zM50.6 11.2c.4-.5 1.2-.6 1.7-.2s.6 1.2.2 1.7c-.5.6-1.2.7-1.7.3-.5-.5-.6-1.2-.2-1.8z"/></symbol><symbol id="sprite-control" viewBox="0 0 90 90"><circle fill="none" stroke="#000" stroke-width="2" stroke-miterlimit="10" cx="45" cy="45" r="40"/><circle fill="none" stroke="#000" stroke-width="2" stroke-miterlimit="10" cx="45" cy="45" r="13"/><path fill="none" stroke="#000" stroke-width="2" stroke-miterlimit="10" d="M71 67L50 57m25 4L58 45M20 68l20-11m-24 6l16-18m15-34l6.1 23.8M40 11.4l-4.1 24.3"/><circle fill="none" stroke="#000" stroke-width="2" stroke-miterlimit="10" cx="45" cy="45" r="34"/><path fill="none" stroke="#000" stroke-width="2" stroke-linecap="round" stroke-miterlimit="10" d="M44.1 18.3v9.2M31 55.3L24.5 60m34.4-5.7l6.5 4.5"/><circle fill="none" stroke="#000" stroke-width="2" stroke-miterlimit="10" cx="45" cy="45" r="6.2"/></symbol><symbol id="sprite-docs" viewBox="0 0 138.1 87"><path fill="none" stroke="#000" stroke-width="2" stroke-miterlimit="10" d="M27.2 83.5L72 68.2 48.9 2 2 18.2z"/><path fill="none" stroke="#000" stroke-width="2" stroke-miterlimit="10" d="M52.8 13l42.6-5.5 8 73.2-47 5.3-1.9-11.3m41.6-61.4l30.1 4 9 15.5L121.8 83l-18.4-4.1"/><path fill="none" stroke="#000" stroke-width="2" stroke-miterlimit="10" d="M126.2 17.3l-3.3 12.3 12.3 3.2m-123-7.7L37 15.8m20.1 9.3l28.4-3.7m-69 16.2l31-11.4M18.6 43.1l30.9-11.4m-28.6 17l30.8-11.3M22.8 54l30.9-11.4M25 59.6l30.9-11.4M50.2 60c.3-2.7 2.6-4.8 5.3-4.5 2.7.3 4.6 2.7 4.4 5.5s-2.6 4.8-5.3 4.5c-2.7-.3-4.7-2.7-4.4-5.5zM30.5 70c.7-2.6 1-4.4 3.8-3.4 2.9 1 3.7.4 3.7-1.1m44.5 3.6c1.2-2.4 1.8-4.1 4.4-2.4 2.6 1.7 3.6 1.2 3.9-.2"/><path fill="none" stroke="#000" stroke-width="2" stroke-miterlimit="10" d="M53.2 60.3c.1-1 1-1.8 2-1.7 1 .1 1.7 1 1.6 2s-1 1.8-2 1.7c-.9 0-1.7-.9-1.6-2zm60.1 2.8c1.8-.1 3.3 1.3 3.4 3.1.1 1.8-1.2 3.4-3 3.5-1.8.1-3.3-1.3-3.4-3.1s1.3-3.4 3-3.5zM60.6 35.4L73.2 34m-10.6 8.7l12.7-1.5m-9.6 8.6l7.5-.9m-4.9 8.6l11-1.3m3.4-23.6l6.1-.6m-5.2 9.2l6.1-.7m-5.3 7.7l6.1-.6m-5.3 7.6l6.1-.7M98.4 34l24.5 4.2m-24.5 1.6l23.1 3.9m-21.9 2.2l20.3 3.5m-20 2.4l18.6 3.4"/></symbol><symbol id="sprite-lawyer" viewBox="0 0 91 83.1"><g fill="none" stroke="#000" stroke-width="2" stroke-linecap="round" stroke-linejoin="round" stroke-miterlimit="10"><path d="M49.5 11C44.3 16.7 39.2 22.3 34 28c-3.8-3.3-6-1.5-7.4.6-.8 1.2-.8 3.9 0 4.8 4.9 5.4 10.2 10.5 15.4 15.5.7.7 2.3.4 4.2.8l4-4C46.6 37.5 39.5 33.1 34 27.5"/><path d="M49.5 41c4-4 7.9-8.1 12-12 1.8-1.7 3.6-3.1 6.5-3.2 1.7-.1 3.9-1.8 4.8-3.4.6-1.1-.3-3.7-1.4-4.8-4.3-4.5-8.9-8.7-13.4-13.1-2.4-2.3-4.6-2.3-7 0-2.7 2.6-1.7 4.8.5 7l14 14M8 69.5c-5.9 1.6-1.6 6-3.5 9.3h34.2v-8.5c-9.9-.2-20.1-.5-30.3-.7M36 69v-5.8H8V69"/><path d="M61 31l27.4 27.4c-2 2.4-3.9 4.7-6.8 8.2-9.8-10.3-18.4-19.4-27.1-28.5"/></g></symbol><symbol id="sprite-legalservice" viewBox="0 0 90 88"><g fill="none" stroke="#000" stroke-width="2" stroke-linecap="round" stroke-linejoin="round" stroke-miterlimit="10"><path d="M45 1.7v72.9m-19.3-15H4.4L15 14.4zm-.4 4.5H4.9c-.7 0-1.3-.3-1.7-.9L.6 59.6h29.1L27 63.2c-.4.5-1.1.9-1.7.9zm60.6-5H64.6l10.7-44.7zm-.5 4.5H65c-.6 0-1.2-.3-1.6-.8l-2.7-3.6h29.1l-2.6 3.6c-.5.4-1.1.8-1.8.8zM61.7 86.4H28.3v-7.1h33.4zm-2.2-7.2H30.4l2.5-3.7c.3-.5.8-.8 1.4-.8h21.3c.6 0 1.2.3 1.4.9l2.5 3.6z"/><path d="M2.5 16.2c18.8 0 22.6-11 42.4-11s24.2 11 42.9 11"/></g></symbol></svg>