<svg xmlns="http://www.w3.org/2000/svg" viewBox="190 183 75 85" width="75" height="85"><path fill="none" stroke="#000" stroke-width="2" d="M242 219v-31.5c-1.7-2.1-3.8-2.8-6.5-2.6-8.8.6-17.7-.6-26.5.5-1.5.2-2.8.2-4 1.5-3.5 3.8-7.3 7.4-11 11-2 2-2.5 4.4-2.5 7v42c0 6.3.8 6.9 7 7 9.5.2 19-.7 28.5.5"/><path fill="none" stroke="#000" stroke-width="2" stroke-linecap="round" stroke-linejoin="round" stroke-miterlimit="10" d="M261 220.5c1.2 9.5.2 19 .5 28.5.1 5.5 0 11 0 16.7H228v-45.8h32"/><path fill="none" stroke="#000" stroke-width="2" stroke-linecap="round" stroke-linejoin="round" stroke-miterlimit="10" d="M251.5 248.5v11.6c1.4.9 3 .1 4.8.5v-13.9c-1.3-.6-3.1 0-4.8-.2m-43-60.5c.8 5 .4 10 .5 15.3-5.8 1.1-11.1.9-16.5.2m41 24c-2.5 1.4.1 3.8-1.7 5.8h24.5c.6-1.5 0-3.4.3-5.8H234m-.5 11.5c-.9 3.5-.9 3.6 3.5 3 .4-2.4-.6-3.3-3-3m10 0c-2.1.2-1.3 1.8-1.6 3 1.1 1 2.4.2 4.2.7-.6-1.6 1.1-3.7-2.2-3.7m9.1 0c-2.1.2-1.3 1.8-1.6 3 1.9.7 4 1.3 4.5-1.5.4-1.9-1.4-1.4-2.4-1.5m-19.5 9.5c-1.4.3-2.5 1.2-1.9 2.5.7 1.5 2.2 2.2 3.9 1.1.2-2.4.2-2.4-1.5-3.5m8.5-.1c-1.2-.1-.9.8-1 1.5-.1 1.3.7 1.9 1.5 2.5 2.1.1 2.7-1.2 2.5-3-.2-1.8-1.6-.7-2.5-1m-.5 9c-2.1 1.1-.4 3-1.1 4.5 1.1 1.1 2.4.3 3.7.6.5-1.7.5-3.4 0-5.1h-2.2m-10.4.5c-1.2 1-1.4 2.2-.2 4 .8-.1 2 .5 3.5-.7.7-2.2.1-3.6-2.8-3.2"/></svg>