<svg xmlns="http://www.w3.org/2000/svg" viewBox="0 0 138.1 87"><path fill="none" stroke="#000" stroke-width="2" stroke-miterlimit="10" d="M27.2 83.5L72 68.2 48.9 2 2 18.2z"/><path fill="none" stroke="#000" stroke-width="2" stroke-miterlimit="10" d="M52.8 13l42.6-5.5 8 73.2-47 5.3-1.9-11.3m41.6-61.4l30.1 4 9 15.5L121.8 83l-18.4-4.1"/><path fill="none" stroke="#000" stroke-width="2" stroke-miterlimit="10" d="M126.2 17.3l-3.3 12.3 12.3 3.2m-123-7.7L37 15.8m20.1 9.3l28.4-3.7m-69 16.2l31-11.4M18.6 43.1l30.9-11.4m-28.6 17l30.8-11.3M22.8 54l30.9-11.4M25 59.6l30.9-11.4M50.2 60c.3-2.7 2.6-4.8 5.3-4.5 2.7.3 4.6 2.7 4.4 5.5s-2.6 4.8-5.3 4.5c-2.7-.3-4.7-2.7-4.4-5.5zM30.5 70c.7-2.6 1-4.4 3.8-3.4 2.9 1 3.7.4 3.7-1.1m44.5 3.6c1.2-2.4 1.8-4.1 4.4-2.4 2.6 1.7 3.6 1.2 3.9-.2"/><path fill="none" stroke="#000" stroke-width="2" stroke-miterlimit="10" d="M53.2 60.3c.1-1 1-1.8 2-1.7 1 .1 1.7 1 1.6 2s-1 1.8-2 1.7c-.9 0-1.7-.9-1.6-2zm60.1 2.8c1.8-.1 3.3 1.3 3.4 3.1.1 1.8-1.2 3.4-3 3.5-1.8.1-3.3-1.3-3.4-3.1s1.3-3.4 3-3.5zM60.6 35.4L73.2 34m-10.6 8.7l12.7-1.5m-9.6 8.6l7.5-.9m-4.9 8.6l11-1.3m3.4-23.6l6.1-.6m-5.2 9.2l6.1-.7m-5.3 7.7l6.1-.6m-5.3 7.6l6.1-.7M98.4 34l24.5 4.2m-24.5 1.6l23.1 3.9m-21.9 2.2l20.3 3.5m-20 2.4l18.6 3.4"/></svg>